<svg width="397" height="639" viewBox="0 0 397 639" fill="none" xmlns="http://www.w3.org/2000/svg">
<rect width="397" height="639" fill="#1E1E1E"/>
<path d="M395.631 0.363822C394.799 -0.118529 393.753 -0.124011 392.899 0.363822L212.195 104.508C211.346 104.996 210.821 105.9 210.821 106.881V157.753C209.041 157.079 207.207 156.706 205.345 156.47V2.73721C205.345 1.68481 204.742 0.725586 203.795 0.270642C202.853 -0.184303 201.725 -0.0582339 200.898 0.594036L70.1458 104.738C69.4942 105.259 69.1163 106.048 69.1163 106.881V369.982C69.1163 370.815 69.4942 371.61 70.1458 372.13L128.546 418.644V419.313H129.389L200.904 476.274C201.397 476.664 201.999 476.866 202.607 476.866C203.012 476.866 203.417 476.773 203.795 476.592C204.742 476.137 205.345 475.178 205.345 474.126V314.911C207.207 314.681 209.041 314.303 210.821 313.629V369.982C210.821 370.963 211.346 371.867 212.195 372.361L292.959 418.902V419.313H293.665L392.899 476.505C393.32 476.746 393.791 476.866 394.262 476.866C394.738 476.866 395.209 476.746 395.631 476.499C396.48 476.011 397 475.107 397 474.126V2.73721C397 1.75606 396.48 0.851654 395.631 0.363822ZM84.9635 376.921L74.5922 368.661V319.609L84.9635 324.827V376.921ZM84.9635 318.699L74.5922 313.481V266.731L84.9635 268.217V318.699ZM84.9635 262.681L74.5922 261.195V215.673L84.9635 214.188V262.681ZM84.9635 208.646L74.5922 210.132V163.382L84.9635 158.164V208.646ZM84.9635 152.03L74.5922 157.248V108.202L84.9635 99.9419V152.03ZM104.775 392.702L90.4394 381.284V327.584L104.775 334.798V392.702ZM104.775 328.664L90.4394 321.451V269L104.775 271.05V328.664ZM104.775 265.514L90.4394 263.464V213.404L104.775 211.354V265.514ZM104.775 205.812L90.4394 207.862V155.412L104.775 148.199V205.812ZM104.775 142.065L90.4394 149.279V95.5843L104.775 84.1668V142.065ZM128.546 411.634L110.251 397.059V337.549L128.546 346.752V411.634ZM128.546 340.624L110.251 331.421V271.834L128.546 274.454V340.624ZM128.546 268.913L110.251 266.293V210.57L128.546 207.95V268.913ZM128.546 202.409L110.251 205.029V145.447L128.546 136.244V202.409ZM128.546 130.105L110.251 139.308V79.7983L128.546 65.2236V130.105ZM165.721 271.012C166.001 272.13 166.269 273.27 166.576 274.356L165.721 274.235V271.012ZM160.246 436.881L134.022 415.991V349.504L160.246 362.697V436.881ZM160.246 356.569L134.022 343.376V275.238L160.246 278.993V356.569ZM160.246 273.451L134.022 269.697V207.166L160.246 203.412V273.451ZM160.246 197.876L134.022 201.63V133.487L160.246 120.294V197.876ZM160.246 114.16L134.022 127.354V60.866L160.246 39.9769V114.16ZM199.869 468.442L165.716 441.238L165.721 365.454L199.869 382.632V468.442ZM199.869 376.504L165.721 359.326V279.771L168.377 280.149C175.206 300.046 186.59 313.284 199.869 314.906V376.504ZM199.869 309.386C189.815 307.704 180.797 296.911 174.762 281.065L199.869 284.66V309.386ZM199.869 279.119L172.747 275.238C169.149 263.711 167.014 250.118 167.014 235.691C167.014 223.583 168.52 212.067 171.121 201.855L199.869 197.739V279.119ZM199.869 192.203L172.763 196.083C178.694 177.124 188.638 163.875 199.869 161.995V192.203ZM199.869 156.47C185.352 158.246 173.108 173.923 166.592 196.966L165.721 197.092V117.542L199.869 100.364V156.47ZM199.869 94.2304L165.721 111.409V35.6193L199.869 8.42128V94.2304ZM265.579 80.0614L292.959 64.2808V129.875L285.188 132.703L268.317 123.325L275.485 136.239L265.579 139.845V80.0614ZM292.959 137.028L291.524 136.228L292.959 135.707V137.028ZM216.297 108.465L232.724 98.9991V151.806L216.297 157.786V108.465ZM232.724 157.632V181.256C228.913 173.341 224.275 166.945 219.018 162.62L232.724 157.632ZM205.345 309.386V161.995C223.415 165.021 238.2 197.497 238.2 235.691C238.2 273.884 223.415 306.366 205.345 309.386ZM232.724 377.864L216.297 368.398V319.083L232.724 325.063V377.864ZM232.724 319.231L216.297 313.251V310.718C222.665 306.487 228.267 299.378 232.724 290.125V319.231ZM260.103 393.644L238.2 381.021V327.053L260.103 335.028V393.644ZM260.103 329.196L238.2 321.22V275.77C238.846 273.599 239.432 271.357 239.969 269.061L260.103 271.144V329.196ZM260.103 265.635L241.102 263.667C242.745 254.99 243.676 245.601 243.676 235.691C243.676 227.803 243.084 220.245 242.028 213.103L260.103 211.233V265.635ZM260.103 205.719L241.097 207.687C240.297 203.472 239.339 199.438 238.2 195.612V155.642L260.103 147.667V205.719ZM260.103 141.835L238.2 149.81V95.8419L260.103 83.2186V141.835ZM292.959 412.577L265.579 396.796V337.017L292.959 346.982V412.577ZM292.959 341.156L265.579 331.191V271.708L292.959 274.542V341.156ZM292.959 269.039L265.579 266.205V210.663L292.959 207.83V269.039ZM265.579 205.149V145.672L278.174 141.084L292.959 167.718V202.31L265.579 205.149ZM336.766 437.823L298.434 415.734V348.978L336.766 362.927V437.823ZM336.766 357.101L298.434 343.151V275.112L336.766 279.081V357.101ZM336.766 273.572L298.434 269.603V207.26L336.766 203.291V273.572ZM336.766 197.777L298.434 201.745V177.589L301.78 183.619L308.472 163.519L328.552 156.821L298.434 140.07V133.712L336.766 119.762V197.777ZM336.766 113.93L298.434 127.88V61.1291L336.766 39.0396V113.93ZM391.524 469.384L342.241 440.981V364.923L391.524 382.863V469.384ZM391.524 377.031L342.241 359.09V279.651L391.524 284.754V377.031ZM391.524 279.245L342.241 274.142V202.727L391.524 197.623V279.245ZM391.524 192.109L342.241 197.212V117.767L391.524 99.8268V192.109ZM391.524 94.0002L342.241 111.94V35.8824L391.524 7.4785V94.0002Z" fill="url(#paint0_linear_0_1)"/>
<path d="M0 419.313L60.2345 385.817L40.1545 379.119L33.463 359.019L0 419.313Z" fill="url(#paint1_linear_0_1)"/>
<path d="M24.7298 533.512H74.6167V549.449H42.9256V576.921H70.371V592.858H42.9256V621.545H74.6167V637.482H24.7298V533.512Z" fill="url(#paint2_linear_0_1)"/>
<path d="M135.741 598.323V637.482H117.545V533.512H148.175C156.363 533.512 162.681 535.536 167.129 539.583C171.678 543.529 173.952 549.196 173.952 556.583V574.341C173.952 586.079 169.707 593.466 161.215 596.501L177.591 637.482H157.576L143.171 598.323H135.741ZM135.741 549.145V583.6H146.355C149.691 583.6 152.067 582.891 153.482 581.475C154.998 579.957 155.756 577.529 155.756 574.189V557.949C155.756 552.08 152.623 549.145 146.355 549.145H135.741Z" fill="url(#paint3_linear_0_1)"/>
<path d="M214.693 556.583C214.693 548.994 217.22 543.125 222.274 538.976C227.329 534.827 234.556 532.753 243.958 532.753C253.46 532.753 260.839 533.714 266.096 535.637V553.092C260.233 550.764 253.308 549.601 245.322 549.601C237.336 549.601 233.343 552.636 233.343 558.708V562.806C233.343 565.841 233.899 568.219 235.011 569.939C236.123 571.558 238.297 573.228 241.531 574.948L258.969 584.814C267.157 589.266 271.251 596.046 271.251 605.153V614.108C271.251 621.798 268.471 627.768 262.912 632.018C257.352 636.167 249.416 638.241 239.105 638.241C228.794 638.241 221.061 637.128 215.906 634.902V617.295C222.375 620.027 229.704 621.393 237.892 621.393C247.9 621.393 252.904 618.257 252.904 611.983V608.037C252.904 605.406 252.348 603.382 251.236 601.965C250.225 600.448 248.304 598.93 245.474 597.412L228.794 588.305C219.393 583.144 214.693 575.707 214.693 565.993V556.583Z" fill="url(#paint4_linear_0_1)"/>
<path d="M352.666 558.859C352.666 551.979 348.875 548.538 341.293 548.538C333.813 548.538 330.073 551.979 330.073 558.859V612.135C330.073 619.015 333.813 622.456 341.293 622.456C348.875 622.456 352.666 619.015 352.666 612.135V558.859ZM311.877 557.949C311.877 550.056 314.354 543.782 319.307 539.128C324.26 534.372 331.589 531.994 341.293 531.994C350.998 531.994 358.327 534.372 363.28 539.128C368.334 543.782 370.862 550.056 370.862 557.949V613.045C370.862 620.938 368.334 627.262 363.28 632.018C358.327 636.673 350.998 639 341.293 639C331.589 639 324.26 636.673 319.307 632.018C314.354 627.262 311.877 620.938 311.877 613.045V557.949Z" fill="url(#paint5_linear_0_1)"/>
<defs>
<linearGradient id="paint0_linear_0_1" x1="198.5" y1="0" x2="198.5" y2="639" gradientUnits="userSpaceOnUse">
<stop stop-color="white"/>
<stop offset="0.524038" stop-color="#D8D8D8" stop-opacity="0.875385"/>
<stop offset="1" stop-color="#999999" stop-opacity="0.73"/>
</linearGradient>
<linearGradient id="paint1_linear_0_1" x1="198.5" y1="0" x2="198.5" y2="639" gradientUnits="userSpaceOnUse">
<stop stop-color="#999999" stop-opacity="0.73"/>
<stop offset="1" stop-color="white"/>
</linearGradient>
<linearGradient id="paint2_linear_0_1" x1="197.122" y1="477.422" x2="197.122" y2="656.8" gradientUnits="userSpaceOnUse">
<stop stop-color="white"/>
<stop offset="1" stop-color="#999999"/>
</linearGradient>
<linearGradient id="paint3_linear_0_1" x1="197.122" y1="477.422" x2="197.122" y2="656.8" gradientUnits="userSpaceOnUse">
<stop stop-color="white"/>
<stop offset="1" stop-color="#999999"/>
</linearGradient>
<linearGradient id="paint4_linear_0_1" x1="197.122" y1="477.422" x2="197.122" y2="656.8" gradientUnits="userSpaceOnUse">
<stop stop-color="white"/>
<stop offset="1" stop-color="#999999"/>
</linearGradient>
<linearGradient id="paint5_linear_0_1" x1="197.122" y1="477.422" x2="197.122" y2="656.8" gradientUnits="userSpaceOnUse">
<stop stop-color="white"/>
<stop offset="1" stop-color="#999999"/>
</linearGradient>
</defs>
</svg>
